<svg width="12" height="12" viewBox="0 0 12 12" fill="none" xmlns="http://www.w3.org/2000/svg">
<path d="M11.9407 0.264C11.898 0.184198 11.8344 0.117491 11.7568 0.0709962C11.6791 0.0245017 11.5903 -3.62953e-05 11.4997 4.02954e-08H0.499742C0.4093 4.67607e-05 0.320564 0.0246239 0.242985 0.071114C0.165406 0.117604 0.10189 0.184266 0.0592011 0.263999C0.0165123 0.343733 -0.00375036 0.433553 0.000571235 0.523891C0.00489283 0.61423 0.0336368 0.701705 0.0837418 0.777L3.99974 6.651V11.5C3.99974 11.6326 4.05242 11.7598 4.14619 11.8536C4.23996 11.9473 4.36713 12 4.49974 12H7.49974C7.63235 12 7.75953 11.9473 7.8533 11.8536C7.94706 11.7598 7.99974 11.6326 7.99974 11.5V6.651L11.9157 0.777C11.9659 0.701748 11.9947 0.614295 11.9991 0.523955C12.0035 0.433616 11.9834 0.343774 11.9407 0.264Z" fill="#585858"/>
</svg>
