<svg width="16" height="16" viewBox="0 0 16 16" fill="none" xmlns="http://www.w3.org/2000/svg">
<path d="M15.2753 10.2944L13.0873 9.66936C12.9105 9.6188 12.751 9.52046 12.6265 9.38514C12.5019 9.24982 12.4171 9.08277 12.3813 8.90237L12.2473 8.22737C12.7699 7.98855 13.2129 7.6047 13.5236 7.12146C13.8344 6.63822 13.9998 6.0759 14.0003 5.50137V4.12737C14.0124 3.33181 13.7166 2.56235 13.1747 1.9798C12.6328 1.39725 11.8867 1.04668 11.0923 1.00137C10.4993 0.983473 9.91436 1.14179 9.41135 1.45631C8.90834 1.77083 8.50987 2.22742 8.26631 2.76837C8.74336 3.46264 8.99923 4.28499 9.00031 5.12737V6.50137C8.99852 6.86514 8.94636 7.22691 8.84531 7.57636C9.10455 7.84831 9.41255 8.06914 9.75331 8.22737L9.61931 8.90136C9.58355 9.08177 9.49872 9.24882 9.37416 9.38414C9.24961 9.51946 9.09014 9.6178 8.91331 9.66836L8.07031 9.90936L9.55031 10.3324C9.96751 10.4529 10.3344 10.7055 10.5958 11.0522C10.8573 11.3989 10.9992 11.8211 11.0003 12.2554V14.5014C10.9987 14.6721 10.9675 14.8412 10.9083 15.0014H15.5003C15.6329 15.0014 15.7601 14.9487 15.8539 14.8549C15.9476 14.7612 16.0003 14.634 16.0003 14.5014V11.2554C16.0002 11.0382 15.9294 10.8269 15.7986 10.6536C15.6678 10.4802 15.4841 10.3541 15.2753 10.2944Z" fill="#585858"/>
<path d="M9.275 11.2944L7.087 10.6694C6.91004 10.6187 6.75049 10.5202 6.62592 10.3847C6.50135 10.2492 6.4166 10.0819 6.381 9.90135L6.247 9.22635C6.7694 8.98761 7.21228 8.60391 7.52303 8.12087C7.83377 7.63782 7.99932 7.07572 8 6.50135V5.12735C8.01213 4.3318 7.71632 3.56234 7.17439 2.97978C6.63246 2.39723 5.88636 2.04666 5.092 2.00135C4.69036 1.98903 4.29034 2.05752 3.91568 2.20275C3.54101 2.34799 3.19935 2.56702 2.91095 2.84683C2.62256 3.12664 2.39332 3.46154 2.23683 3.83164C2.08035 4.20175 1.99981 4.59952 2 5.00135V6.50135C2.00049 7.07589 2.16595 7.6382 2.4767 8.12145C2.78746 8.60469 3.23045 8.98853 3.753 9.22735L3.619 9.90135C3.58323 10.0818 3.49841 10.2488 3.37385 10.3841C3.24929 10.5194 3.08983 10.6178 2.913 10.6684L0.725 11.2934C0.516025 11.3531 0.332214 11.4794 0.201397 11.6529C0.0705796 11.8265 -0.000120636 12.038 1.54521e-07 12.2554V14.5014C1.54521e-07 14.634 0.0526786 14.7611 0.146447 14.8549C0.240215 14.9487 0.367392 15.0014 0.5 15.0014H9.5C9.63261 15.0014 9.75979 14.9487 9.85355 14.8549C9.94732 14.7611 10 14.634 10 14.5014V12.2554C9.9999 12.0382 9.9291 11.8269 9.7983 11.6535C9.6675 11.4802 9.48381 11.3541 9.275 11.2944Z" fill="#585858"/>
</svg>
